<svg width="32" height="32" viewBox="0 0 32 32" fill="none" xmlns="http://www.w3.org/2000/svg">
<path d="M5.33268 26.6668C4.59935 26.6668 3.97157 26.4057 3.44935 25.8835C2.92713 25.3613 2.66602 24.7335 2.66602 24.0002V8.00016C2.66602 7.26683 2.92713 6.63905 3.44935 6.11683C3.97157 5.59461 4.59935 5.3335 5.33268 5.3335H26.666C27.3993 5.3335 28.0271 5.59461 28.5494 6.11683C29.0716 6.63905 29.3327 7.26683 29.3327 8.00016V24.0002C29.3327 24.7335 29.0716 25.3613 28.5494 25.8835C28.0271 26.4057 27.3993 26.6668 26.666 26.6668H5.33268ZM15.9993 17.3335L5.33268 10.6668V24.0002H26.666V10.6668L15.9993 17.3335ZM15.9993 14.6668L26.666 8.00016H5.33268L15.9993 14.6668ZM5.33268 10.6668V8.00016V24.0002V10.6668Z" fill="#2F4858"/>
</svg>
