<svg width="32" height="32" viewBox="0 0 32 32" fill="none" xmlns="http://www.w3.org/2000/svg">
<path d="M4 15.3334C3.99541 17.0932 4.40657 18.8292 5.2 20.4C6.14076 22.2824 7.587 23.8656 9.37673 24.9724C11.1665 26.0792 13.229 26.6659 15.3333 26.6667C17.0932 26.6713 18.8292 26.2601 20.4 25.4667L28 28L25.4667 20.4C26.2601 18.8292 26.6713 17.0932 26.6667 15.3334C26.6659 13.229 26.0792 11.1665 24.9724 9.37677C23.8656 7.58704 22.2823 6.14079 20.4 5.20004C18.8292 4.40661 17.0932 3.99545 15.3333 4.00004H14.6667C11.8875 4.15336 9.26261 5.32639 7.29448 7.29452C5.32635 9.26265 4.15332 11.8876 4 14.6667V15.3334Z" stroke="#2F4858" stroke-width="3" stroke-linecap="round" stroke-linejoin="round"/>
</svg>
