<svg width="88" height="18" viewBox="0 0 88 18" fill="none" xmlns="http://www.w3.org/2000/svg">
<path d="M14.832 5.336C14.224 4.2 13.448 3.376 12.504 2.864C11.576 2.352 10.56 2.096 9.456 2.096C8.336 2.096 7.312 2.368 6.384 2.912C5.456 3.456 4.72 4.216 4.176 5.192C3.648 6.152 3.384 7.288 3.384 8.6C3.384 9.896 3.648 11.032 4.176 12.008C4.704 12.984 5.424 13.744 6.336 14.288C7.264 14.832 8.296 15.104 9.432 15.104C10.248 15.104 11.016 14.96 11.736 14.672C12.456 14.384 13.08 13.984 13.608 13.472C14.152 12.96 14.576 12.352 14.88 11.648V9.824H9.6V7.856H17.304V11.768C16.92 12.792 16.344 13.712 15.576 14.528C14.824 15.344 13.92 15.992 12.864 16.472C11.824 16.936 10.68 17.168 9.432 17.168C8.248 17.168 7.136 16.96 6.096 16.544C5.072 16.128 4.176 15.544 3.408 14.792C2.64 14.024 2.04 13.12 1.608 12.08C1.176 11.024 0.96 9.864 0.96 8.6C0.96 7.352 1.176 6.208 1.608 5.168C2.04 4.112 2.64 3.2 3.408 2.432C4.176 1.664 5.072 1.072 6.096 0.655999C7.136 0.239999 8.248 0.0319996 9.432 0.0319996C10.504 0.0319996 11.528 0.207999 12.504 0.559999C13.48 0.911999 14.352 1.424 15.12 2.096C15.888 2.768 16.488 3.592 16.92 4.568L14.832 5.336ZM25.3579 17.168C24.2059 17.168 23.1819 16.904 22.2859 16.376C21.4059 15.832 20.7099 15.088 20.1979 14.144C19.7019 13.2 19.4539 12.12 19.4539 10.904C19.4539 9.736 19.7019 8.696 20.1979 7.784C20.6939 6.872 21.3739 6.152 22.2379 5.624C23.1179 5.096 24.1099 4.832 25.2139 4.832C26.3339 4.832 27.3259 5.08 28.1899 5.576C29.0539 6.056 29.7259 6.736 30.2059 7.616C30.6859 8.48 30.9179 9.48 30.9019 10.616C30.9019 10.808 30.8939 11.008 30.8779 11.216C30.8619 11.408 30.8379 11.624 30.8059 11.864H21.9259C21.9739 12.504 22.1499 13.072 22.4539 13.568C22.7739 14.048 23.1739 14.424 23.6539 14.696C24.1499 14.968 24.7099 15.104 25.3339 15.104C26.1339 15.104 26.8299 14.952 27.4219 14.648C28.0139 14.328 28.4299 13.904 28.6699 13.376L30.6379 14.072C30.1579 15.048 29.4539 15.808 28.5259 16.352C27.6139 16.896 26.5579 17.168 25.3579 17.168ZM28.4299 9.92C28.4299 9.344 28.2859 8.824 27.9979 8.36C27.7099 7.896 27.3179 7.536 26.8219 7.28C26.3419 7.008 25.7979 6.872 25.1899 6.872C24.6459 6.872 24.1419 7.008 23.6779 7.28C23.2299 7.536 22.8459 7.896 22.5259 8.36C22.2219 8.808 22.0299 9.328 21.9499 9.92H28.4299ZM38.8813 17.168C37.7293 17.168 36.7053 16.904 35.8093 16.376C34.9293 15.832 34.2333 15.088 33.7213 14.144C33.2253 13.2 32.9773 12.12 32.9773 10.904C32.9773 9.736 33.2253 8.696 33.7213 7.784C34.2173 6.872 34.8973 6.152 35.7613 5.624C36.6413 5.096 37.6333 4.832 38.7373 4.832C39.8573 4.832 40.8493 5.08 41.7133 5.576C42.5773 6.056 43.2493 6.736 43.7293 7.616C44.2093 8.48 44.4413 9.48 44.4253 10.616C44.4253 10.808 44.4173 11.008 44.4013 11.216C44.3853 11.408 44.3613 11.624 44.3293 11.864H35.4493C35.4973 12.504 35.6733 13.072 35.9773 13.568C36.2973 14.048 36.6973 14.424 37.1773 14.696C37.6733 14.968 38.2333 15.104 38.8573 15.104C39.6573 15.104 40.3533 14.952 40.9453 14.648C41.5373 14.328 41.9533 13.904 42.1933 13.376L44.1613 14.072C43.6813 15.048 42.9773 15.808 42.0493 16.352C41.1373 16.896 40.0813 17.168 38.8813 17.168ZM41.9533 9.92C41.9533 9.344 41.8093 8.824 41.5213 8.36C41.2333 7.896 40.8413 7.536 40.3453 7.28C39.8653 7.008 39.3213 6.872 38.7133 6.872C38.1693 6.872 37.6653 7.008 37.2013 7.28C36.7533 7.536 36.3693 7.896 36.0493 8.36C35.7453 8.808 35.5533 9.328 35.4733 9.92H41.9533ZM57.3968 4.856C57.3968 4.04 57.1248 3.4 56.5808 2.936C56.0528 2.456 55.2848 2.216 54.2768 2.216H49.7648V7.472H54.3008C55.2768 7.472 56.0368 7.24 56.5808 6.776C57.1248 6.312 57.3968 5.672 57.3968 4.856ZM47.3648 17V0.199999H54.4928C55.6768 0.199999 56.6608 0.399999 57.4448 0.8C58.2288 1.2 58.8128 1.728 59.1968 2.384C59.5968 3.04 59.7968 3.768 59.7968 4.568C59.7968 5.32 59.6528 5.952 59.3648 6.464C59.0928 6.976 58.7248 7.384 58.2608 7.688C57.8128 7.992 57.3008 8.208 56.7248 8.336V8.504C57.4128 8.6 58.0128 8.808 58.5248 9.128C59.0528 9.432 59.4608 9.864 59.7488 10.424C60.0528 10.984 60.2048 11.68 60.2048 12.512C60.2048 13.344 59.9888 14.104 59.5568 14.792C59.1248 15.48 58.5008 16.024 57.6848 16.424C56.8848 16.808 55.9088 17 54.7568 17H47.3648ZM49.7648 14.984H54.5408C55.5648 14.984 56.3648 14.752 56.9408 14.288C57.5328 13.808 57.8288 13.128 57.8288 12.248C57.8288 11.352 57.5168 10.672 56.8928 10.208C56.2848 9.728 55.4768 9.488 54.4688 9.488H49.7648V14.984ZM68.3891 17.168C67.2371 17.168 66.2131 16.904 65.3171 16.376C64.4371 15.832 63.7411 15.088 63.2291 14.144C62.7331 13.2 62.4851 12.12 62.4851 10.904C62.4851 9.736 62.7331 8.696 63.2291 7.784C63.7251 6.872 64.4051 6.152 65.2691 5.624C66.1491 5.096 67.1411 4.832 68.2451 4.832C69.3651 4.832 70.3571 5.08 71.2211 5.576C72.0851 6.056 72.7571 6.736 73.2371 7.616C73.7171 8.48 73.9491 9.48 73.9331 10.616C73.9331 10.808 73.9251 11.008 73.9091 11.216C73.8931 11.408 73.8691 11.624 73.8371 11.864H64.9571C65.0051 12.504 65.1811 13.072 65.4851 13.568C65.8051 14.048 66.2051 14.424 66.6851 14.696C67.1811 14.968 67.7411 15.104 68.3651 15.104C69.1651 15.104 69.8611 14.952 70.4531 14.648C71.0451 14.328 71.4611 13.904 71.7011 13.376L73.6691 14.072C73.1891 15.048 72.4851 15.808 71.5571 16.352C70.6451 16.896 69.5891 17.168 68.3891 17.168ZM71.4611 9.92C71.4611 9.344 71.3171 8.824 71.0291 8.36C70.7411 7.896 70.3491 7.536 69.8531 7.28C69.3731 7.008 68.8291 6.872 68.2211 6.872C67.6771 6.872 67.1731 7.008 66.7091 7.28C66.2611 7.536 65.8771 7.896 65.5571 8.36C65.2531 8.808 65.0611 9.328 64.9811 9.92H71.4611ZM81.9126 17.168C80.7606 17.168 79.7366 16.904 78.8406 16.376C77.9606 15.832 77.2646 15.088 76.7526 14.144C76.2566 13.2 76.0086 12.12 76.0086 10.904C76.0086 9.736 76.2566 8.696 76.7526 7.784C77.2486 6.872 77.9286 6.152 78.7926 5.624C79.6726 5.096 80.6646 4.832 81.7686 4.832C82.8886 4.832 83.8806 5.08 84.7446 5.576C85.6086 6.056 86.2806 6.736 86.7606 7.616C87.2406 8.48 87.4726 9.48 87.4566 10.616C87.4566 10.808 87.4486 11.008 87.4326 11.216C87.4166 11.408 87.3926 11.624 87.3606 11.864H78.4806C78.5286 12.504 78.7046 13.072 79.0086 13.568C79.3286 14.048 79.7286 14.424 80.2086 14.696C80.7046 14.968 81.2646 15.104 81.8886 15.104C82.6886 15.104 83.3846 14.952 83.9766 14.648C84.5686 14.328 84.9846 13.904 85.2246 13.376L87.1926 14.072C86.7126 15.048 86.0086 15.808 85.0806 16.352C84.1686 16.896 83.1126 17.168 81.9126 17.168ZM84.9846 9.92C84.9846 9.344 84.8406 8.824 84.5526 8.36C84.2646 7.896 83.8726 7.536 83.3766 7.28C82.8966 7.008 82.3526 6.872 81.7446 6.872C81.2006 6.872 80.6966 7.008 80.2326 7.28C79.7846 7.536 79.4006 7.896 79.0806 8.36C78.7766 8.808 78.5846 9.328 78.5046 9.92H84.9846Z" fill="black"/>
</svg>
